<?xml version="1.0" encoding="UTF-8"?>
<svg width="20px" height="11px" viewBox="0 0 20 11" version="1.1" xmlns="http://www.w3.org/2000/svg" xmlns:xlink="http://www.w3.org/1999/xlink">
    <!-- Generator: Sketch 52.6 (67491) - http://www.bohemiancoding.com/sketch -->
    <title>clip</title>
    <desc>Created with Sketch.</desc>
    <g id="Page-1" stroke="none" stroke-width="1" fill="none" fill-rule="evenodd">
        <g id="Artboard" transform="translate(-1275.000000, -562.000000)" fill="#0744DD">
            <g id="clip" transform="translate(1285.194199, 568.466927) scale(-1, -1) rotate(45.000000) translate(-1285.194199, -568.466927) translate(1277.466927, 559.966927)">
                <path d="M7.17777778,7.58461538 C7.41025641,7.35213675 7.41025641,6.97435897 7.17777778,6.74188034 C6.94529915,6.50940171 6.56752137,6.50940171 6.33504274,6.74188034 L3.18205128,9.89487179 C2.64444444,10.4324786 2.35384615,11.1299145 2.35384615,11.8854701 C2.35384615,12.6410256 2.64444444,13.3384615 3.18205128,13.8760684 C4.28632479,14.9803419 6.07350427,14.9803419 7.16324786,13.8760684 L14.282906,6.75641026 C15.0239316,6.01538462 15.4307692,5.02735043 15.4307692,3.98119658 C15.4307692,2.93504274 15.0239316,1.94700855 14.282906,1.20598291 C12.742735,-0.334188034 10.2581197,-0.334188034 8.71794872,1.20598291 L1.61282051,8.31111111 C0.653846154,9.27008547 0.130769231,10.534188 0.130769231,11.8854701 C0.130769231,13.2367521 0.653846154,14.5153846 1.61282051,15.4598291 C2.57179487,16.4188034 3.83589744,16.9418803 5.18717949,16.9418803 C6.53846154,16.9418803 7.81709402,16.4188034 8.76153846,15.4598291 L11.9145299,12.3068376 C12.1470085,12.074359 12.1470085,11.6965812 11.9145299,11.4641026 C11.6820513,11.2316239 11.3042735,11.2316239 11.0717949,11.4641026 L7.91880342,14.617094 C7.19230769,15.3435897 6.21880342,15.7504274 5.18717949,15.7504274 C4.15555556,15.7504274 3.18205128,15.3435897 2.45555556,14.617094 C1.72905983,13.8905983 1.32222222,12.917094 1.32222222,11.8854701 C1.32222222,10.8538462 1.72905983,9.88034188 2.45555556,9.15384615 L9.56068376,2.04871795 C10.0837607,1.52564103 10.7666667,1.24957265 11.4931624,1.24957265 C12.2196581,1.24957265 12.917094,1.54017094 13.425641,2.04871795 C13.9487179,2.57179487 14.2247863,3.25470085 14.2247863,3.98119658 C14.2247863,4.70769231 13.934188,5.40512821 13.425641,5.91367521 L6.30598291,13.0333333 C5.68119658,13.6581197 4.64957265,13.6581197 4.01025641,13.0333333 C3.70512821,12.7282051 3.53076923,12.3213675 3.53076923,11.8854701 C3.53076923,11.4495726 3.70512821,11.042735 4.01025641,10.7376068 L7.17777778,7.58461538 Z" id="Path"></path>
            </g>
        </g>
    </g>
</svg>